<?xml version="1.0" standalone="no"?>
<!DOCTYPE svg PUBLIC "-//W3C//DTD SVG 20010904//EN"
 "http://www.w3.org/TR/2001/REC-SVG-20010904/DTD/svg10.dtd">
<svg version="1.0" xmlns="http://www.w3.org/2000/svg"
 width="74.000000pt" height="74.000000pt" viewBox="0 0 74.000000 74.000000"
 preserveAspectRatio="xMidYMid meet">
<metadata>
Created by potrace 1.11, written by Peter Selinger 2001-2013
</metadata>
<g transform="translate(0.000000,74.000000) scale(0.100000,-0.100000)"
fill="#000000" stroke="none">
<path d="M0 370 l0 -370 370 0 370 0 0 370 0 370 -370 0 -370 0 0 -370z m425
107 l30 -18 -35 8 c-98 20 -227 -8 -244 -52 -29 -78 38 -135 158 -135 28 0 67
4 86 10 31 8 33 8 16 -5 -28 -21 -123 -38 -175 -31 -100 14 -179 79 -165 136
8 34 41 69 89 92 51 24 193 21 240 -5z m-127 -49 c16 -16 15 -28 -3 -28 -8 0
-15 5 -15 10 0 6 -9 10 -21 10 -26 0 -20 -24 7 -29 48 -9 61 -55 19 -71 -31
-12 -75 3 -75 25 0 17 16 20 25 5 9 -14 47 -12 43 2 -3 7 -15 15 -28 18 -32 8
-47 34 -31 54 16 19 62 21 79 4z m54 -10 l15 -22 12 22 c6 12 18 22 26 22 19
0 19 -3 -5 -42 -11 -18 -20 -43 -20 -55 0 -14 -6 -23 -15 -23 -9 0 -15 9 -15
23 0 12 -9 37 -20 55 -24 39 -24 42 -6 42 7 0 20 -10 28 -22z m168 7 c16 -19
5 -34 -12 -17 -20 20 -47 14 -54 -13 -13 -51 20 -73 58 -38 17 15 18 15 18 -6
0 -42 -75 -47 -102 -7 -13 19 -9 59 9 78 20 22 66 24 83 3z m50 -35 c0 -49 1
-50 30 -50 17 0 30 -4 30 -10 0 -5 -18 -10 -39 -10 l-39 0 -4 56 c-1 31 -1 58
1 60 14 14 21 -2 21 -46z m107 -66 c-3 -3 -12 -4 -19 -1 -8 3 -5 6 6 6 11 1
17 -2 13 -5z"/>
</g>
</svg>
